<mxfile host="Electron" modified="2024-05-04T16:47:55.753Z" agent="Mozilla/5.0 (Macintosh; Intel Mac OS X 10_15_7) AppleWebKit/537.36 (KHTML, like Gecko) draw.io/24.2.5 Chrome/120.0.6099.109 Electron/28.1.0 Safari/537.36" etag="aOOzjrIupbhvQWMLzm7I" version="24.2.5" type="device">
  <diagram name="Page-1" id="8dTF5zdOFAtDlMq9OLb1">
    <mxGraphModel dx="2128" dy="626" grid="1" gridSize="10" guides="1" tooltips="1" connect="1" arrows="1" fold="1" page="1" pageScale="1" pageWidth="827" pageHeight="1169" math="0" shadow="0">
      <root>
        <mxCell id="0" />
        <mxCell id="1" parent="0" />
        <mxCell id="h5ezPPdVTYWKYrcUpNly-2" value="" style="rounded=0;whiteSpace=wrap;html=1;movable=0;resizable=0;rotatable=0;deletable=0;editable=0;locked=1;connectable=0;" parent="1" vertex="1">
          <mxGeometry x="80" y="40" width="640" height="770" as="geometry" />
        </mxCell>
        <mxCell id="h5ezPPdVTYWKYrcUpNly-3" value="Member" style="shape=umlActor;verticalLabelPosition=bottom;verticalAlign=top;html=1;outlineConnect=0;" parent="1" vertex="1">
          <mxGeometry x="-20" y="200" width="30" height="60" as="geometry" />
        </mxCell>
        <mxCell id="h5ezPPdVTYWKYrcUpNly-4" value="Search Inventory" style="ellipse;whiteSpace=wrap;html=1;" parent="1" vertex="1">
          <mxGeometry x="120" y="70" width="80" height="50" as="geometry" />
        </mxCell>
        <mxCell id="h5ezPPdVTYWKYrcUpNly-5" value="Create A/C" style="ellipse;whiteSpace=wrap;html=1;" parent="1" vertex="1">
          <mxGeometry x="260" y="70" width="80" height="50" as="geometry" />
        </mxCell>
        <mxCell id="h5ezPPdVTYWKYrcUpNly-6" value="Update/Cancel A/C" style="ellipse;whiteSpace=wrap;html=1;fontSize=10;" parent="1" vertex="1">
          <mxGeometry x="430" y="70" width="80" height="50" as="geometry" />
        </mxCell>
        <mxCell id="h5ezPPdVTYWKYrcUpNly-7" value="Login/Logout" style="ellipse;whiteSpace=wrap;html=1;" parent="1" vertex="1">
          <mxGeometry x="600" y="70" width="80" height="50" as="geometry" />
        </mxCell>
        <mxCell id="h5ezPPdVTYWKYrcUpNly-8" value="Add Vehicle" style="ellipse;whiteSpace=wrap;html=1;" parent="1" vertex="1">
          <mxGeometry x="520" y="226" width="80" height="50" as="geometry" />
        </mxCell>
        <mxCell id="h5ezPPdVTYWKYrcUpNly-10" value="" style="edgeStyle=orthogonalEdgeStyle;rounded=0;orthogonalLoop=1;jettySize=auto;html=1;" parent="1" source="h5ezPPdVTYWKYrcUpNly-9" target="h5ezPPdVTYWKYrcUpNly-8" edge="1">
          <mxGeometry relative="1" as="geometry" />
        </mxCell>
        <mxCell id="h5ezPPdVTYWKYrcUpNly-9" value="add car" style="ellipse;whiteSpace=wrap;html=1;" parent="1" vertex="1">
          <mxGeometry x="400" y="231" width="60" height="40" as="geometry" />
        </mxCell>
        <mxCell id="h5ezPPdVTYWKYrcUpNly-44" value="" style="edgeStyle=orthogonalEdgeStyle;rounded=0;orthogonalLoop=1;jettySize=auto;html=1;" parent="1" source="h5ezPPdVTYWKYrcUpNly-11" target="h5ezPPdVTYWKYrcUpNly-8" edge="1">
          <mxGeometry relative="1" as="geometry" />
        </mxCell>
        <mxCell id="h5ezPPdVTYWKYrcUpNly-11" value="add van" style="ellipse;whiteSpace=wrap;html=1;" parent="1" vertex="1">
          <mxGeometry x="440" y="191" width="60" height="40" as="geometry" />
        </mxCell>
        <mxCell id="h5ezPPdVTYWKYrcUpNly-14" value="" style="edgeStyle=orthogonalEdgeStyle;rounded=0;orthogonalLoop=1;jettySize=auto;html=1;" parent="1" source="h5ezPPdVTYWKYrcUpNly-13" target="h5ezPPdVTYWKYrcUpNly-8" edge="1">
          <mxGeometry relative="1" as="geometry" />
        </mxCell>
        <mxCell id="h5ezPPdVTYWKYrcUpNly-13" value="add bike" style="ellipse;whiteSpace=wrap;html=1;" parent="1" vertex="1">
          <mxGeometry x="530" y="160" width="60" height="40" as="geometry" />
        </mxCell>
        <mxCell id="h5ezPPdVTYWKYrcUpNly-16" value="" style="edgeStyle=orthogonalEdgeStyle;rounded=0;orthogonalLoop=1;jettySize=auto;html=1;" parent="1" source="h5ezPPdVTYWKYrcUpNly-15" target="h5ezPPdVTYWKYrcUpNly-8" edge="1">
          <mxGeometry relative="1" as="geometry" />
        </mxCell>
        <mxCell id="h5ezPPdVTYWKYrcUpNly-15" value="add truck" style="ellipse;whiteSpace=wrap;html=1;" parent="1" vertex="1">
          <mxGeometry x="630" y="231" width="60" height="40" as="geometry" />
        </mxCell>
        <mxCell id="h5ezPPdVTYWKYrcUpNly-17" value="Remove Vehicle" style="ellipse;whiteSpace=wrap;html=1;" parent="1" vertex="1">
          <mxGeometry x="170" y="221" width="80" height="50" as="geometry" />
        </mxCell>
        <mxCell id="h5ezPPdVTYWKYrcUpNly-19" value="" style="edgeStyle=orthogonalEdgeStyle;rounded=0;orthogonalLoop=1;jettySize=auto;html=1;" parent="1" source="h5ezPPdVTYWKYrcUpNly-18" target="h5ezPPdVTYWKYrcUpNly-17" edge="1">
          <mxGeometry relative="1" as="geometry" />
        </mxCell>
        <mxCell id="h5ezPPdVTYWKYrcUpNly-18" value="remove truck" style="ellipse;whiteSpace=wrap;html=1;" parent="1" vertex="1">
          <mxGeometry x="100" y="176" width="60" height="40" as="geometry" />
        </mxCell>
        <mxCell id="h5ezPPdVTYWKYrcUpNly-22" value="" style="edgeStyle=orthogonalEdgeStyle;rounded=0;orthogonalLoop=1;jettySize=auto;html=1;" parent="1" source="h5ezPPdVTYWKYrcUpNly-20" target="h5ezPPdVTYWKYrcUpNly-18" edge="1">
          <mxGeometry relative="1" as="geometry" />
        </mxCell>
        <mxCell id="h5ezPPdVTYWKYrcUpNly-20" value="remove car" style="ellipse;whiteSpace=wrap;html=1;" parent="1" vertex="1">
          <mxGeometry x="260" y="166" width="60" height="40" as="geometry" />
        </mxCell>
        <mxCell id="h5ezPPdVTYWKYrcUpNly-23" value="remove van" style="ellipse;whiteSpace=wrap;html=1;" parent="1" vertex="1">
          <mxGeometry x="270" y="226" width="60" height="40" as="geometry" />
        </mxCell>
        <mxCell id="h5ezPPdVTYWKYrcUpNly-25" value="" style="endArrow=classic;html=1;rounded=0;entryX=1;entryY=0.5;entryDx=0;entryDy=0;exitX=0;exitY=0.5;exitDx=0;exitDy=0;" parent="1" source="h5ezPPdVTYWKYrcUpNly-23" target="h5ezPPdVTYWKYrcUpNly-17" edge="1">
          <mxGeometry width="50" height="50" relative="1" as="geometry">
            <mxPoint x="390" y="436" as="sourcePoint" />
            <mxPoint x="440" y="386" as="targetPoint" />
          </mxGeometry>
        </mxCell>
        <mxCell id="h5ezPPdVTYWKYrcUpNly-27" value="" style="edgeStyle=orthogonalEdgeStyle;rounded=0;orthogonalLoop=1;jettySize=auto;html=1;" parent="1" source="h5ezPPdVTYWKYrcUpNly-26" target="h5ezPPdVTYWKYrcUpNly-17" edge="1">
          <mxGeometry relative="1" as="geometry" />
        </mxCell>
        <mxCell id="h5ezPPdVTYWKYrcUpNly-26" value="remove bike" style="ellipse;whiteSpace=wrap;html=1;" parent="1" vertex="1">
          <mxGeometry x="90" y="226" width="60" height="40" as="geometry" />
        </mxCell>
        <mxCell id="h5ezPPdVTYWKYrcUpNly-30" value="" style="endArrow=none;html=1;rounded=0;exitX=0.5;exitY=0;exitDx=0;exitDy=0;exitPerimeter=0;entryX=0.5;entryY=0;entryDx=0;entryDy=0;endFill=0;" parent="1" source="h5ezPPdVTYWKYrcUpNly-3" target="h5ezPPdVTYWKYrcUpNly-7" edge="1">
          <mxGeometry width="50" height="50" relative="1" as="geometry">
            <mxPoint x="390" y="400" as="sourcePoint" />
            <mxPoint x="670" y="40" as="targetPoint" />
            <Array as="points">
              <mxPoint x="-5" y="50" />
              <mxPoint x="640" y="50" />
            </Array>
          </mxGeometry>
        </mxCell>
        <mxCell id="h5ezPPdVTYWKYrcUpNly-32" value="" style="endArrow=none;html=1;rounded=0;exitX=0.5;exitY=0;exitDx=0;exitDy=0;" parent="1" source="h5ezPPdVTYWKYrcUpNly-6" edge="1">
          <mxGeometry width="50" height="50" relative="1" as="geometry">
            <mxPoint x="390" y="390" as="sourcePoint" />
            <mxPoint x="470" y="50" as="targetPoint" />
          </mxGeometry>
        </mxCell>
        <mxCell id="h5ezPPdVTYWKYrcUpNly-33" value="" style="endArrow=none;html=1;rounded=0;exitX=0.5;exitY=0;exitDx=0;exitDy=0;" parent="1" source="h5ezPPdVTYWKYrcUpNly-5" edge="1">
          <mxGeometry width="50" height="50" relative="1" as="geometry">
            <mxPoint x="437" y="71" as="sourcePoint" />
            <mxPoint x="300" y="50" as="targetPoint" />
          </mxGeometry>
        </mxCell>
        <mxCell id="h5ezPPdVTYWKYrcUpNly-34" value="" style="endArrow=none;html=1;rounded=0;exitX=0.5;exitY=0;exitDx=0;exitDy=0;" parent="1" source="h5ezPPdVTYWKYrcUpNly-4" edge="1">
          <mxGeometry width="50" height="50" relative="1" as="geometry">
            <mxPoint x="310" y="80" as="sourcePoint" />
            <mxPoint x="160" y="50" as="targetPoint" />
          </mxGeometry>
        </mxCell>
        <mxCell id="h5ezPPdVTYWKYrcUpNly-35" value="Receptionist" style="shape=umlActor;verticalLabelPosition=bottom;verticalAlign=top;html=1;outlineConnect=0;" parent="1" vertex="1">
          <mxGeometry x="760" y="290" width="30" height="60" as="geometry" />
        </mxCell>
        <mxCell id="h5ezPPdVTYWKYrcUpNly-36" value="" style="endArrow=none;html=1;rounded=0;entryX=0.5;entryY=0;entryDx=0;entryDy=0;entryPerimeter=0;exitX=0.5;exitY=1;exitDx=0;exitDy=0;" parent="1" source="h5ezPPdVTYWKYrcUpNly-4" target="h5ezPPdVTYWKYrcUpNly-35" edge="1">
          <mxGeometry width="50" height="50" relative="1" as="geometry">
            <mxPoint x="190" y="130" as="sourcePoint" />
            <mxPoint x="440" y="340" as="targetPoint" />
            <Array as="points">
              <mxPoint x="160" y="140" />
              <mxPoint x="775" y="140" />
            </Array>
          </mxGeometry>
        </mxCell>
        <mxCell id="h5ezPPdVTYWKYrcUpNly-40" value="" style="endArrow=none;html=1;rounded=0;entryX=0.5;entryY=1;entryDx=0;entryDy=0;" parent="1" target="h5ezPPdVTYWKYrcUpNly-5" edge="1">
          <mxGeometry width="50" height="50" relative="1" as="geometry">
            <mxPoint x="300" y="140" as="sourcePoint" />
            <mxPoint x="440" y="340" as="targetPoint" />
          </mxGeometry>
        </mxCell>
        <mxCell id="h5ezPPdVTYWKYrcUpNly-41" value="" style="endArrow=none;html=1;rounded=0;entryX=0.5;entryY=1;entryDx=0;entryDy=0;" parent="1" target="h5ezPPdVTYWKYrcUpNly-6" edge="1">
          <mxGeometry width="50" height="50" relative="1" as="geometry">
            <mxPoint x="470" y="140" as="sourcePoint" />
            <mxPoint x="310" y="130" as="targetPoint" />
          </mxGeometry>
        </mxCell>
        <mxCell id="h5ezPPdVTYWKYrcUpNly-42" value="" style="endArrow=none;html=1;rounded=0;entryX=0.5;entryY=1;entryDx=0;entryDy=0;" parent="1" target="h5ezPPdVTYWKYrcUpNly-7" edge="1">
          <mxGeometry width="50" height="50" relative="1" as="geometry">
            <mxPoint x="640" y="140" as="sourcePoint" />
            <mxPoint x="480" y="130" as="targetPoint" />
          </mxGeometry>
        </mxCell>
        <mxCell id="h5ezPPdVTYWKYrcUpNly-45" value="Modify Vehicle" style="ellipse;whiteSpace=wrap;html=1;" parent="1" vertex="1">
          <mxGeometry x="480" y="410" width="80" height="50" as="geometry" />
        </mxCell>
        <mxCell id="h5ezPPdVTYWKYrcUpNly-53" value="" style="edgeStyle=orthogonalEdgeStyle;rounded=0;orthogonalLoop=1;jettySize=auto;html=1;entryX=1;entryY=0.5;entryDx=0;entryDy=0;" parent="1" source="h5ezPPdVTYWKYrcUpNly-46" target="h5ezPPdVTYWKYrcUpNly-45" edge="1">
          <mxGeometry relative="1" as="geometry" />
        </mxCell>
        <mxCell id="h5ezPPdVTYWKYrcUpNly-46" value="Modify Car" style="ellipse;whiteSpace=wrap;html=1;" parent="1" vertex="1">
          <mxGeometry x="590" y="410" width="80" height="50" as="geometry" />
        </mxCell>
        <mxCell id="h5ezPPdVTYWKYrcUpNly-51" value="" style="edgeStyle=orthogonalEdgeStyle;rounded=0;orthogonalLoop=1;jettySize=auto;html=1;entryX=0.5;entryY=0;entryDx=0;entryDy=0;" parent="1" target="h5ezPPdVTYWKYrcUpNly-45" edge="1">
          <mxGeometry relative="1" as="geometry">
            <mxPoint x="520" y="410" as="sourcePoint" />
          </mxGeometry>
        </mxCell>
        <mxCell id="h5ezPPdVTYWKYrcUpNly-54" value="" style="edgeStyle=orthogonalEdgeStyle;rounded=0;orthogonalLoop=1;jettySize=auto;html=1;entryX=0.5;entryY=0;entryDx=0;entryDy=0;" parent="1" source="h5ezPPdVTYWKYrcUpNly-47" target="h5ezPPdVTYWKYrcUpNly-45" edge="1">
          <mxGeometry relative="1" as="geometry" />
        </mxCell>
        <mxCell id="h5ezPPdVTYWKYrcUpNly-47" value="Modify bike" style="ellipse;whiteSpace=wrap;html=1;" parent="1" vertex="1">
          <mxGeometry x="420" y="340" width="80" height="50" as="geometry" />
        </mxCell>
        <mxCell id="h5ezPPdVTYWKYrcUpNly-55" value="" style="edgeStyle=orthogonalEdgeStyle;rounded=0;orthogonalLoop=1;jettySize=auto;html=1;entryX=0;entryY=0.5;entryDx=0;entryDy=0;" parent="1" source="h5ezPPdVTYWKYrcUpNly-48" target="h5ezPPdVTYWKYrcUpNly-45" edge="1">
          <mxGeometry relative="1" as="geometry" />
        </mxCell>
        <mxCell id="h5ezPPdVTYWKYrcUpNly-48" value="Modify van" style="ellipse;whiteSpace=wrap;html=1;" parent="1" vertex="1">
          <mxGeometry x="374" y="410" width="80" height="50" as="geometry" />
        </mxCell>
        <mxCell id="h5ezPPdVTYWKYrcUpNly-56" value="" style="edgeStyle=orthogonalEdgeStyle;rounded=0;orthogonalLoop=1;jettySize=auto;html=1;" parent="1" source="h5ezPPdVTYWKYrcUpNly-49" target="h5ezPPdVTYWKYrcUpNly-45" edge="1">
          <mxGeometry relative="1" as="geometry" />
        </mxCell>
        <mxCell id="h5ezPPdVTYWKYrcUpNly-49" value="Modify Truck" style="ellipse;whiteSpace=wrap;html=1;" parent="1" vertex="1">
          <mxGeometry x="480" y="480" width="80" height="50" as="geometry" />
        </mxCell>
        <mxCell id="h5ezPPdVTYWKYrcUpNly-57" value="" style="endArrow=none;html=1;rounded=0;entryX=0;entryY=1;entryDx=0;entryDy=0;entryPerimeter=0;exitX=1;exitY=0;exitDx=0;exitDy=0;" parent="1" source="h5ezPPdVTYWKYrcUpNly-45" target="h5ezPPdVTYWKYrcUpNly-35" edge="1">
          <mxGeometry width="50" height="50" relative="1" as="geometry">
            <mxPoint x="390" y="390" as="sourcePoint" />
            <mxPoint x="700" y="390" as="targetPoint" />
            <Array as="points">
              <mxPoint x="548" y="350" />
            </Array>
          </mxGeometry>
        </mxCell>
        <mxCell id="h5ezPPdVTYWKYrcUpNly-59" value="Make a reservation" style="ellipse;whiteSpace=wrap;html=1;" parent="1" vertex="1">
          <mxGeometry x="100" y="350" width="80" height="50" as="geometry" />
        </mxCell>
        <mxCell id="h5ezPPdVTYWKYrcUpNly-61" value="" style="edgeStyle=orthogonalEdgeStyle;rounded=0;orthogonalLoop=1;jettySize=auto;html=1;dashed=1;" parent="1" source="h5ezPPdVTYWKYrcUpNly-60" target="h5ezPPdVTYWKYrcUpNly-59" edge="1">
          <mxGeometry relative="1" as="geometry" />
        </mxCell>
        <mxCell id="h5ezPPdVTYWKYrcUpNly-60" value="add rental insurance" style="ellipse;whiteSpace=wrap;html=1;" parent="1" vertex="1">
          <mxGeometry x="100" y="440" width="80" height="50" as="geometry" />
        </mxCell>
        <mxCell id="h5ezPPdVTYWKYrcUpNly-62" value="&amp;lt;&amp;lt;extend&amp;gt;&amp;gt;" style="text;html=1;align=center;verticalAlign=middle;resizable=0;points=[];autosize=1;strokeColor=none;fillColor=none;fontFamily=Helvetica;fontSize=10;fontColor=default;labelBackgroundColor=default;" parent="1" vertex="1">
          <mxGeometry x="70" y="408" width="80" height="30" as="geometry" />
        </mxCell>
        <mxCell id="h5ezPPdVTYWKYrcUpNly-68" value="" style="edgeStyle=orthogonalEdgeStyle;rounded=0;orthogonalLoop=1;jettySize=auto;html=1;dashed=1;strokeColor=default;align=center;verticalAlign=middle;fontFamily=Helvetica;fontSize=11;fontColor=default;labelBackgroundColor=default;endArrow=classic;entryX=0.5;entryY=0;entryDx=0;entryDy=0;" parent="1" source="h5ezPPdVTYWKYrcUpNly-63" target="h5ezPPdVTYWKYrcUpNly-59" edge="1">
          <mxGeometry relative="1" as="geometry">
            <mxPoint x="300" y="426" as="targetPoint" />
          </mxGeometry>
        </mxCell>
        <mxCell id="h5ezPPdVTYWKYrcUpNly-63" value="add additional driver" style="ellipse;whiteSpace=wrap;html=1;" parent="1" vertex="1">
          <mxGeometry x="100" y="274" width="80" height="50" as="geometry" />
        </mxCell>
        <mxCell id="h5ezPPdVTYWKYrcUpNly-71" value="" style="edgeStyle=orthogonalEdgeStyle;rounded=0;orthogonalLoop=1;jettySize=auto;html=1;dashed=1;strokeColor=default;align=center;verticalAlign=middle;fontFamily=Helvetica;fontSize=11;fontColor=default;labelBackgroundColor=default;endArrow=classic;entryX=1;entryY=0;entryDx=0;entryDy=0;" parent="1" source="h5ezPPdVTYWKYrcUpNly-64" target="h5ezPPdVTYWKYrcUpNly-59" edge="1">
          <mxGeometry relative="1" as="geometry">
            <mxPoint x="254" y="465" as="targetPoint" />
          </mxGeometry>
        </mxCell>
        <mxCell id="h5ezPPdVTYWKYrcUpNly-64" value="add service" style="ellipse;whiteSpace=wrap;html=1;" parent="1" vertex="1">
          <mxGeometry x="214" y="310" width="80" height="50" as="geometry" />
        </mxCell>
        <mxCell id="h5ezPPdVTYWKYrcUpNly-74" value="" style="edgeStyle=orthogonalEdgeStyle;rounded=0;orthogonalLoop=1;jettySize=auto;html=1;dashed=1;strokeColor=default;align=center;verticalAlign=middle;fontFamily=Helvetica;fontSize=11;fontColor=default;labelBackgroundColor=default;endArrow=classic;entryX=1;entryY=1;entryDx=0;entryDy=0;" parent="1" source="h5ezPPdVTYWKYrcUpNly-65" target="h5ezPPdVTYWKYrcUpNly-59" edge="1">
          <mxGeometry relative="1" as="geometry">
            <mxPoint x="174" y="545" as="targetPoint" />
          </mxGeometry>
        </mxCell>
        <mxCell id="h5ezPPdVTYWKYrcUpNly-65" value="add equipment" style="ellipse;whiteSpace=wrap;html=1;" parent="1" vertex="1">
          <mxGeometry x="214" y="380" width="80" height="50" as="geometry" />
        </mxCell>
        <mxCell id="h5ezPPdVTYWKYrcUpNly-69" value="&amp;lt;&amp;lt;extend&amp;gt;&amp;gt;" style="text;html=1;align=center;verticalAlign=middle;resizable=0;points=[];autosize=1;strokeColor=none;fillColor=none;fontFamily=Helvetica;fontSize=10;fontColor=default;labelBackgroundColor=default;" parent="1" vertex="1">
          <mxGeometry x="70" y="320" width="80" height="30" as="geometry" />
        </mxCell>
        <mxCell id="h5ezPPdVTYWKYrcUpNly-72" value="&amp;lt;&amp;lt;extend&amp;gt;&amp;gt;" style="text;html=1;align=center;verticalAlign=middle;resizable=0;points=[];autosize=1;strokeColor=none;fillColor=none;fontFamily=Helvetica;fontSize=10;fontColor=default;labelBackgroundColor=default;" parent="1" vertex="1">
          <mxGeometry x="142" y="313" width="80" height="30" as="geometry" />
        </mxCell>
        <mxCell id="h5ezPPdVTYWKYrcUpNly-75" value="&amp;lt;&amp;lt;extend&amp;gt;&amp;gt;" style="text;html=1;align=center;verticalAlign=middle;resizable=0;points=[];autosize=1;strokeColor=none;fillColor=none;fontFamily=Helvetica;fontSize=10;fontColor=default;labelBackgroundColor=default;" parent="1" vertex="1">
          <mxGeometry x="145" y="397" width="80" height="30" as="geometry" />
        </mxCell>
        <mxCell id="h5ezPPdVTYWKYrcUpNly-79" value="" style="endArrow=none;html=1;rounded=0;strokeColor=default;align=center;verticalAlign=middle;fontFamily=Helvetica;fontSize=11;fontColor=default;labelBackgroundColor=default;edgeStyle=orthogonalEdgeStyle;exitX=1;exitY=0.5;exitDx=0;exitDy=0;entryX=0;entryY=0.3333333333333333;entryDx=0;entryDy=0;entryPerimeter=0;" parent="1" source="h5ezPPdVTYWKYrcUpNly-59" target="h5ezPPdVTYWKYrcUpNly-35" edge="1">
          <mxGeometry width="50" height="50" relative="1" as="geometry">
            <mxPoint x="390" y="390" as="sourcePoint" />
            <mxPoint x="440" y="340" as="targetPoint" />
            <Array as="points">
              <mxPoint x="350" y="375" />
              <mxPoint x="350" y="310" />
            </Array>
          </mxGeometry>
        </mxCell>
        <mxCell id="h5ezPPdVTYWKYrcUpNly-82" value="" style="edgeStyle=orthogonalEdgeStyle;rounded=0;orthogonalLoop=1;jettySize=auto;html=1;strokeColor=default;align=center;verticalAlign=middle;fontFamily=Helvetica;fontSize=11;fontColor=default;labelBackgroundColor=default;endArrow=none;endFill=0;entryX=1;entryY=1;entryDx=0;entryDy=0;entryPerimeter=0;" parent="1" source="h5ezPPdVTYWKYrcUpNly-80" target="h5ezPPdVTYWKYrcUpNly-3" edge="1">
          <mxGeometry relative="1" as="geometry">
            <mxPoint y="300" as="targetPoint" />
          </mxGeometry>
        </mxCell>
        <mxCell id="h5ezPPdVTYWKYrcUpNly-80" value="Pickup Vehicle" style="ellipse;whiteSpace=wrap;html=1;" parent="1" vertex="1">
          <mxGeometry x="260" y="478" width="80" height="50" as="geometry" />
        </mxCell>
        <mxCell id="h5ezPPdVTYWKYrcUpNly-87" value="" style="edgeStyle=orthogonalEdgeStyle;rounded=0;orthogonalLoop=1;jettySize=auto;html=1;dashed=1;strokeColor=default;align=center;verticalAlign=middle;fontFamily=Helvetica;fontSize=11;fontColor=default;labelBackgroundColor=default;endArrow=classic;" parent="1" source="h5ezPPdVTYWKYrcUpNly-83" target="h5ezPPdVTYWKYrcUpNly-84" edge="1">
          <mxGeometry relative="1" as="geometry" />
        </mxCell>
        <mxCell id="h5ezPPdVTYWKYrcUpNly-83" value="Return Vehicle" style="ellipse;whiteSpace=wrap;html=1;" parent="1" vertex="1">
          <mxGeometry x="100" y="584.5" width="80" height="50" as="geometry" />
        </mxCell>
        <mxCell id="h5ezPPdVTYWKYrcUpNly-84" value="Pay Bill" style="ellipse;whiteSpace=wrap;html=1;" parent="1" vertex="1">
          <mxGeometry x="240" y="585" width="80" height="50" as="geometry" />
        </mxCell>
        <mxCell id="h5ezPPdVTYWKYrcUpNly-85" value="update reservation" style="ellipse;whiteSpace=wrap;html=1;" parent="1" vertex="1">
          <mxGeometry x="350" y="585" width="80" height="50" as="geometry" />
        </mxCell>
        <mxCell id="h5ezPPdVTYWKYrcUpNly-86" value="cancel reservation" style="ellipse;whiteSpace=wrap;html=1;" parent="1" vertex="1">
          <mxGeometry x="490" y="585" width="80" height="50" as="geometry" />
        </mxCell>
        <mxCell id="h5ezPPdVTYWKYrcUpNly-88" value="&amp;lt;&amp;lt;include&amp;gt;&amp;gt;" style="text;html=1;align=center;verticalAlign=middle;resizable=0;points=[];autosize=1;strokeColor=none;fillColor=none;fontFamily=Helvetica;fontSize=10;fontColor=default;labelBackgroundColor=default;" parent="1" vertex="1">
          <mxGeometry x="170" y="584.5" width="80" height="30" as="geometry" />
        </mxCell>
        <mxCell id="h5ezPPdVTYWKYrcUpNly-91" value="" style="endArrow=none;html=1;rounded=0;strokeColor=default;align=center;verticalAlign=middle;fontFamily=Helvetica;fontSize=11;fontColor=default;labelBackgroundColor=default;exitX=1;exitY=1;exitDx=0;exitDy=0;exitPerimeter=0;entryX=0.5;entryY=0;entryDx=0;entryDy=0;" parent="1" source="h5ezPPdVTYWKYrcUpNly-3" target="h5ezPPdVTYWKYrcUpNly-86" edge="1">
          <mxGeometry width="50" height="50" relative="1" as="geometry">
            <mxPoint y="340" as="sourcePoint" />
            <mxPoint x="590" y="550" as="targetPoint" />
            <Array as="points">
              <mxPoint x="10" y="550" />
              <mxPoint x="530" y="550" />
            </Array>
          </mxGeometry>
        </mxCell>
        <mxCell id="h5ezPPdVTYWKYrcUpNly-92" value="" style="endArrow=none;html=1;rounded=0;strokeColor=default;align=center;verticalAlign=middle;fontFamily=Helvetica;fontSize=11;fontColor=default;labelBackgroundColor=default;exitX=0.5;exitY=0;exitDx=0;exitDy=0;" parent="1" source="h5ezPPdVTYWKYrcUpNly-85" edge="1">
          <mxGeometry width="50" height="50" relative="1" as="geometry">
            <mxPoint x="620" y="530" as="sourcePoint" />
            <mxPoint x="390" y="550" as="targetPoint" />
          </mxGeometry>
        </mxCell>
        <mxCell id="h5ezPPdVTYWKYrcUpNly-93" value="" style="endArrow=none;html=1;rounded=0;strokeColor=default;align=center;verticalAlign=middle;fontFamily=Helvetica;fontSize=11;fontColor=default;labelBackgroundColor=default;entryX=0.5;entryY=0;entryDx=0;entryDy=0;" parent="1" target="h5ezPPdVTYWKYrcUpNly-83" edge="1">
          <mxGeometry width="50" height="50" relative="1" as="geometry">
            <mxPoint x="140" y="550" as="sourcePoint" />
            <mxPoint x="140" y="580" as="targetPoint" />
          </mxGeometry>
        </mxCell>
        <mxCell id="h5ezPPdVTYWKYrcUpNly-95" value="" style="endArrow=none;html=1;rounded=0;strokeColor=default;align=center;verticalAlign=middle;fontFamily=Helvetica;fontSize=11;fontColor=default;labelBackgroundColor=default;exitX=0.5;exitY=0;exitDx=0;exitDy=0;" parent="1" source="h5ezPPdVTYWKYrcUpNly-84" edge="1">
          <mxGeometry width="50" height="50" relative="1" as="geometry">
            <mxPoint x="630" y="540" as="sourcePoint" />
            <mxPoint x="280" y="550" as="targetPoint" />
          </mxGeometry>
        </mxCell>
        <mxCell id="h5ezPPdVTYWKYrcUpNly-96" value="" style="endArrow=none;html=1;rounded=0;strokeColor=default;align=center;verticalAlign=middle;fontFamily=Helvetica;fontSize=11;fontColor=default;labelBackgroundColor=default;exitX=0.5;exitY=1;exitDx=0;exitDy=0;entryX=1;entryY=1;entryDx=0;entryDy=0;entryPerimeter=0;" parent="1" source="h5ezPPdVTYWKYrcUpNly-85" target="h5ezPPdVTYWKYrcUpNly-35" edge="1">
          <mxGeometry width="50" height="50" relative="1" as="geometry">
            <mxPoint x="400" y="675" as="sourcePoint" />
            <mxPoint x="790" y="430" as="targetPoint" />
            <Array as="points">
              <mxPoint x="390" y="650" />
              <mxPoint x="790" y="650" />
            </Array>
          </mxGeometry>
        </mxCell>
        <mxCell id="h5ezPPdVTYWKYrcUpNly-97" value="" style="endArrow=none;html=1;rounded=0;strokeColor=default;align=center;verticalAlign=middle;fontFamily=Helvetica;fontSize=11;fontColor=default;labelBackgroundColor=default;exitX=0.5;exitY=1;exitDx=0;exitDy=0;" parent="1" source="h5ezPPdVTYWKYrcUpNly-86" edge="1">
          <mxGeometry width="50" height="50" relative="1" as="geometry">
            <mxPoint x="150" y="560" as="sourcePoint" />
            <mxPoint x="530" y="650" as="targetPoint" />
          </mxGeometry>
        </mxCell>
        <mxCell id="h5ezPPdVTYWKYrcUpNly-98" value="Overdue notification" style="ellipse;whiteSpace=wrap;html=1;" parent="1" vertex="1">
          <mxGeometry x="190" y="635" width="80" height="50" as="geometry" />
        </mxCell>
        <mxCell id="h5ezPPdVTYWKYrcUpNly-99" value="reservation notification" style="ellipse;whiteSpace=wrap;html=1;" parent="1" vertex="1">
          <mxGeometry x="134" y="686" width="80" height="50" as="geometry" />
        </mxCell>
        <mxCell id="h5ezPPdVTYWKYrcUpNly-100" value="reservation&amp;nbsp; cancel notification" style="ellipse;whiteSpace=wrap;html=1;" parent="1" vertex="1">
          <mxGeometry x="135" y="755" width="90" height="50" as="geometry" />
        </mxCell>
        <mxCell id="h5ezPPdVTYWKYrcUpNly-102" value="System" style="shape=umlActor;verticalLabelPosition=bottom;verticalAlign=top;html=1;outlineConnect=0;fontFamily=Helvetica;fontSize=11;fontColor=default;labelBackgroundColor=default;" parent="1" vertex="1">
          <mxGeometry x="-30" y="680" width="30" height="60" as="geometry" />
        </mxCell>
        <mxCell id="h5ezPPdVTYWKYrcUpNly-104" value="" style="endArrow=none;html=1;rounded=0;strokeColor=default;align=center;verticalAlign=middle;fontFamily=Helvetica;fontSize=11;fontColor=default;labelBackgroundColor=default;entryX=0.5;entryY=0;entryDx=0;entryDy=0;entryPerimeter=0;exitX=0;exitY=0.5;exitDx=0;exitDy=0;" parent="1" source="h5ezPPdVTYWKYrcUpNly-98" target="h5ezPPdVTYWKYrcUpNly-102" edge="1">
          <mxGeometry width="50" height="50" relative="1" as="geometry">
            <mxPoint x="340" y="610" as="sourcePoint" />
            <mxPoint x="390" y="560" as="targetPoint" />
            <Array as="points">
              <mxPoint x="-15" y="660" />
            </Array>
          </mxGeometry>
        </mxCell>
        <mxCell id="h5ezPPdVTYWKYrcUpNly-105" value="" style="endArrow=none;html=1;rounded=0;strokeColor=default;align=center;verticalAlign=middle;fontFamily=Helvetica;fontSize=11;fontColor=default;labelBackgroundColor=default;entryX=1;entryY=0.3333333333333333;entryDx=0;entryDy=0;entryPerimeter=0;exitX=0.038;exitY=0.28;exitDx=0;exitDy=0;exitPerimeter=0;" parent="1" source="h5ezPPdVTYWKYrcUpNly-99" target="h5ezPPdVTYWKYrcUpNly-102" edge="1">
          <mxGeometry width="50" height="50" relative="1" as="geometry">
            <mxPoint x="200" y="670" as="sourcePoint" />
            <mxPoint x="-5" y="690" as="targetPoint" />
            <Array as="points" />
          </mxGeometry>
        </mxCell>
        <mxCell id="h5ezPPdVTYWKYrcUpNly-106" value="" style="endArrow=none;html=1;rounded=0;strokeColor=default;align=center;verticalAlign=middle;fontFamily=Helvetica;fontSize=11;fontColor=default;labelBackgroundColor=default;entryX=0;entryY=0.5;entryDx=0;entryDy=0;exitX=1;exitY=1;exitDx=0;exitDy=0;exitPerimeter=0;" parent="1" source="h5ezPPdVTYWKYrcUpNly-102" target="h5ezPPdVTYWKYrcUpNly-100" edge="1">
          <mxGeometry width="50" height="50" relative="1" as="geometry">
            <mxPoint x="340" y="610" as="sourcePoint" />
            <mxPoint x="390" y="560" as="targetPoint" />
            <Array as="points" />
          </mxGeometry>
        </mxCell>
        <mxCell id="h5ezPPdVTYWKYrcUpNly-108" value="" style="endArrow=none;html=1;rounded=0;strokeColor=default;align=center;verticalAlign=middle;fontFamily=Helvetica;fontSize=11;fontColor=default;labelBackgroundColor=default;entryX=0.5;entryY=1;entryDx=0;entryDy=0;exitX=0.25;exitY=0.1;exitDx=0;exitDy=0;exitPerimeter=0;" parent="1" source="h5ezPPdVTYWKYrcUpNly-35" target="h5ezPPdVTYWKYrcUpNly-8" edge="1">
          <mxGeometry width="50" height="50" relative="1" as="geometry">
            <mxPoint x="350" y="400" as="sourcePoint" />
            <mxPoint x="400" y="350" as="targetPoint" />
          </mxGeometry>
        </mxCell>
        <mxCell id="h5ezPPdVTYWKYrcUpNly-110" value="" style="endArrow=none;html=1;rounded=0;strokeColor=default;align=center;verticalAlign=middle;fontFamily=Helvetica;fontSize=11;fontColor=default;labelBackgroundColor=default;entryX=0.25;entryY=0.1;entryDx=0;entryDy=0;entryPerimeter=0;exitX=0.5;exitY=1;exitDx=0;exitDy=0;" parent="1" source="h5ezPPdVTYWKYrcUpNly-17" target="h5ezPPdVTYWKYrcUpNly-35" edge="1">
          <mxGeometry width="50" height="50" relative="1" as="geometry">
            <mxPoint x="410" y="830" as="sourcePoint" />
            <mxPoint x="460" y="780" as="targetPoint" />
          </mxGeometry>
        </mxCell>
        <mxCell id="h5ezPPdVTYWKYrcUpNly-112" value="" style="endArrow=none;html=1;rounded=0;strokeColor=default;align=center;verticalAlign=middle;fontFamily=Helvetica;fontSize=11;fontColor=default;labelBackgroundColor=default;entryX=0;entryY=0.5;entryDx=0;entryDy=0;exitX=1;exitY=0.3333333333333333;exitDx=0;exitDy=0;exitPerimeter=0;" parent="1" source="h5ezPPdVTYWKYrcUpNly-3" target="h5ezPPdVTYWKYrcUpNly-59" edge="1">
          <mxGeometry width="50" height="50" relative="1" as="geometry">
            <mxPoint x="410" y="830" as="sourcePoint" />
            <mxPoint x="40" y="370" as="targetPoint" />
          </mxGeometry>
        </mxCell>
        <mxCell id="H9eWIMlXqKqGuKah5eTT-1" value="Update Log" style="ellipse;whiteSpace=wrap;html=1;" vertex="1" parent="1">
          <mxGeometry x="590" y="705" width="80" height="50" as="geometry" />
        </mxCell>
        <mxCell id="H9eWIMlXqKqGuKah5eTT-2" value="" style="endArrow=none;html=1;rounded=0;strokeColor=default;align=center;verticalAlign=middle;fontFamily=Helvetica;fontSize=11;fontColor=default;labelBackgroundColor=default;" edge="1" parent="1" source="h5ezPPdVTYWKYrcUpNly-35">
          <mxGeometry width="50" height="50" relative="1" as="geometry">
            <mxPoint x="540" y="645" as="sourcePoint" />
            <mxPoint x="670" y="730" as="targetPoint" />
            <Array as="points">
              <mxPoint x="775" y="730" />
            </Array>
          </mxGeometry>
        </mxCell>
        <mxCell id="H9eWIMlXqKqGuKah5eTT-3" value="&lt;font style=&quot;font-size: 24px;&quot;&gt;&lt;b&gt;Car Rental System&lt;/b&gt;&lt;/font&gt;" style="text;html=1;align=center;verticalAlign=middle;resizable=0;points=[];autosize=1;strokeColor=none;fillColor=none;" vertex="1" parent="1">
          <mxGeometry x="240" y="3" width="240" height="40" as="geometry" />
        </mxCell>
      </root>
    </mxGraphModel>
  </diagram>
</mxfile>
